<?xml version="1.0" encoding="UTF-8"?>
<svg id="Layer_1" data-name="Layer 1" xmlns="http://www.w3.org/2000/svg" viewBox="0 0 40 40">
  <defs>
    <style>
      .cls-1 {
        fill: #262626;
        stroke-width: 0px;
      }
    </style>
  </defs>
  <path class="cls-1" d="m35.8,0c-2.18.1-4.35.25-6.52.38-2.06.12-4.13.2-6.19.36-1.44.11-2.39.73-3.36,1.7C13.65,8.51,7.58,14.57,1.52,20.64l-.53.53c-.12.12-.2.24-.26.36-1.01,1.47-1.01,3.24.26,4.64.24.27.52.52.78.78,1.59,1.59,3.17,3.17,4.76,4.76l5.33,5.33c1.02,1.02,2.14,2.5,3.59,2.86,1.89.46,3.12-.65,4.32-1.85l3.98-3.98c3.61-3.61,7.21-7.21,10.82-10.82,1.1-1.1,2.21-2.19,3.3-3.3,1-1.02,1.33-2.17,1.41-3.55.24-4.19.71-8.42.73-12.62.01-2.47-1.87-3.87-4.2-3.76Zm1.39,5.29c-.13,2.25-.26,4.49-.39,6.74-.09,1.61.08,3.51-.29,5.08-.17.72-.9,1.23-1.4,1.73l-17.44,17.44c-.63.63-1.21,1.4-2.1.62-1.13-.99-2.15-2.15-3.21-3.21-3-3-6.01-6.01-9.01-9.01-.44-.44-.98-.93-.43-1.59l15.9-15.9,3.07-3.07c.65-.65,1.19-.67,2.1-.72,4.02-.23,8.05-.58,12.07-.7,1.6-.05,1.22,1.46,1.15,2.59Z"/>
  <path class="cls-1" d="m30.58,11.49c-.06.18-.02.11,0,0h0Z"/>
  <path class="cls-1" d="m30.16,12.47s.04-.04.05-.05c0,0,0,0,0-.01-.02,0-.04.03-.06.06Z"/>
  <path class="cls-1" d="m27.73,6.72c-2.15.39-3.66,2.41-3.69,4.54.03,1.98,1.26,3.68,3.1,4.37,1.73.65,3.87.08,5.04-1.35,1.25-1.52,1.51-3.67.48-5.39-1.03-1.72-3-2.52-4.94-2.17Zm-.84,3.81s-.02.04,0,0h0Zm-.12.44c0-.13,0-.07,0,0h0Zm2.68,2.05s0,0,0,0c.08-.03.16-.05,0,0Zm1.12-1.41c-.03.14-.08.27-.12.41,0,0,0,0,0,0-.04.07-.08.15-.12.23-.03.05-.07.1-.1.15,0,0,.01-.01.01,0,0,0-.01.01-.02.02,0,0,0,0,0,.01-.08.13-.07.09-.04.04-.08.09-.21.22-.22.24-.02.02-.04.04-.06.06-.01.01-.01,0-.02.02-.01.01-.03.02-.04.03-.05.03-.35.19-.42.23-.06.02-.13.04-.19.06-.06.02-.11.03-.17.04-.06.01-.29,0-.08.02.23.02-.05,0-.09,0-.08,0-.15,0-.23,0-.07,0-.15,0-.22-.01,0,0,0,0,0,0-.16-.04-.32-.08-.48-.14-.08-.05-.17-.08-.24-.13-.05-.03-.1-.06-.14-.09-.02-.01-.03-.02-.05-.03,0,0,0,0-.02-.02-.1-.1-.2-.2-.3-.3,0,0,0,0-.01,0-.04-.07-.09-.13-.13-.2-.04-.07-.08-.15-.12-.23,0,0,0,0,0,0-.05-.14-.08-.29-.12-.43,0,.01,0,.03,0,.04,0,0,0-.03,0-.07,0-.01,0-.02,0-.03-.03-.1-.01-.08,0-.04,0-.1-.02-.21-.02-.23,0-.07,0-.15,0-.22.03-.09.07-.34.09-.39,0-.01.04-.11.07-.18.08-.14.15-.27.24-.4.05-.04.09-.1.13-.14.04-.04.08-.08.12-.12,0,0,.02-.02.03-.02.08-.04.29-.2.32-.22.05-.03.1-.05.15-.08,0,0,0,0,.01,0,0,0,.01,0,.02,0,.14-.04.27-.08.41-.11-.02,0-.03,0-.04,0,0,0,.03,0,.07,0,.1-.02.1-.02.07,0,.04,0,.08,0,.09,0,.14,0,.28,0,.42.01.08.02.16.04.25.06.06.02.12.04.18.06,0,0-.02-.01-.02-.02,0,0,.02.01.03.02.02,0,.04.01.06.02.12.04.06.03-.01,0,.1.05.27.14.3.16.04.03.09.06.13.09,0,0,0,0,0,0,.02.02.2.21.29.3-.04-.06-.06-.11,0,0,0,.02.02.03.03.05,0,0,.03.03.03.03,0,0-.01,0-.02-.01.03.05.07.1.1.16.03.05.06.1.08.15,0,.01.01.02.02.03.02.09.12.34.13.37.01.06.03.12.04.17,0,0,0,0,0,0,0,.01,0,.02,0,.03,0,.14.01.27,0,.41,0,.02,0,.03,0,.05,0-.02,0-.03.02-.05-.02.05-.02.12-.03.17Z"/>
  <path class="cls-1" d="m29.39,9.47s0,0-.01,0c.01.01.03.02.06.03-.02-.01-.03-.02-.05-.03Z"/>
  <path class="cls-1" d="m26.77,11.48s0,.05,0,.07c0,.01,0,.02,0,.03,0-.03,0-.07-.01-.1Z"/>
  <path class="cls-1" d="m28.45,9.34s-.05,0-.07,0c0,0,0,0-.02,0,0,0-.01,0-.02,0,.03,0,.07,0,.1-.01Z"/>
  <path class="cls-1" d="m30.22,10.1s0,0,0-.01c-.01-.01-.02-.02-.04-.04.02.02.03.04.04.05Z"/>
</svg>