<?xml version="1.0" encoding="UTF-8"?>
<svg id="Layer_1" data-name="Layer 1" xmlns="http://www.w3.org/2000/svg" viewBox="0 0 40 40">
  <defs>
    <style>
      .cls-1 {
        fill: #262626;
        stroke-width: 0px;
      }
    </style>
  </defs>
  <path class="cls-1" d="m39.62,18.14c-4.88-4.88-9.77-9.77-14.65-14.65-1.09-1.09-2.2-2.08-3.78-2.4-2.17-.43-4.14.4-5.66,1.9-2.58,2.55-5.13,5.13-7.7,7.7S2.86,15.66.38,18.14c-1.17,1.17.65,2.99,1.82,1.82,4.73-4.73,9.45-9.45,14.18-14.18.73-.73,1.48-1.67,2.47-2.04,1.7-.64,3.02.27,4.14,1.4l7.91,7.91c2.3,2.3,4.6,4.6,6.91,6.91,1.17,1.17,2.99-.65,1.82-1.82h0Z"/>
  <path class="cls-1" d="m32.86,23.12v9.21c0,1.86-.92,3.09-2.74,3.73-1.3.45-2.67.37-4.02.37h-11.08c-2.74,0-7.69.33-7.87-3.47-.16-3.27,0-6.57,0-9.85,0-1.66-2.57-1.66-2.57,0,0,3.24-.04,6.49,0,9.73.03,2.41,1.5,4.3,3.66,5.3,1.67.77,3.41.85,5.2.85h12.04c1.29,0,2.6.07,3.87-.13,2.8-.42,5.75-2.3,6.06-5.35.17-1.7.03-3.47.03-5.17v-5.24c0-1.66-2.57-1.66-2.57,0h0Z"/>
</svg>