<?xml version="1.0" encoding="UTF-8"?>
<svg id="Layer_2" data-name="Layer 2" xmlns="http://www.w3.org/2000/svg" viewBox="0 0 33.83 36.06">
  <defs>
    <style>
      .cls-1 {
        fill: #262626;
        stroke-width: 0px;
      }
    </style>
  </defs>
  <g id="Layer_1-2" data-name="Layer 1">
    <path class="cls-1" d="m32.06,10.05L19.46.84c-1.52-1.11-3.57-1.11-5.09,0L1.77,10.05c-1.11.81-1.77,2.11-1.77,3.48v18.21c0,2.38,1.94,4.31,4.31,4.31h25.2c2.38,0,4.31-1.94,4.31-4.31V13.53c0-1.37-.66-2.67-1.77-3.48Zm-18.82,23.87v-9.21c0-1.22,1-2.22,2.22-2.22h2.9c1.22,0,2.22,1,2.22,2.22v9.21h-7.34Zm18.45-2.18c0,1.2-.98,2.18-2.18,2.18h-6.8v-9.21c0-2.4-1.95-4.36-4.36-4.36h-2.9c-2.4,0-4.36,1.95-4.36,4.36v9.21h-6.8c-1.2,0-2.18-.98-2.18-2.18V13.53c0-.69.33-1.35.89-1.76L15.63,2.56c.38-.28.83-.42,1.29-.42s.9.14,1.29.42l12.6,9.21c.56.41.89,1.07.89,1.76v18.21Z"/>
  </g>
</svg>