<?xml version="1.0" encoding="UTF-8"?>
<svg id="Layer_1" data-name="Layer 1" xmlns="http://www.w3.org/2000/svg" viewBox="0 0 40 40">
  <defs>
    <style>
      .cls-1 {
        fill: #262626;
        stroke-width: 0px;
      }
    </style>
  </defs>
  <path class="cls-1" d="m21.82,35.6c-.06.18-.02.11,0,0h0Z"/>
  <path class="cls-1" d="m21.45,36.53s0,0,0-.01c-.02,0-.04.03-.06.06.02-.02.04-.04.05-.05Z"/>
  <path class="cls-1" d="m21.45,34.21s-.02-.02-.04-.04c.02.02.03.04.04.05,0,0,0,0,0-.01Z"/>
  <path class="cls-1" d="m20.63,33.59s0,0-.01,0c.01.01.03.02.06.03-.02-.01-.03-.02-.05-.03Z"/>
  <path class="cls-1" d="m19.62,33.47s0,0-.02,0c0,0-.01,0-.02,0,.03,0,.07,0,.1-.01-.02,0-.05,0-.07,0Z"/>
  <path class="cls-1" d="m18.02,35.67s0,.02,0,.03c0-.03,0-.07-.01-.1,0,.02,0,.05,0,.07Z"/>
  <path class="cls-1" d="m37.45,27.5c-.07-.11-.16-.21-.27-.31-2.01-1.63-3-3.82-3.02-6.4-.01-1.69,0-3.38,0-5.07,0-4.58-1.27-8.93-4.78-12.09C25.43.06,19.7-1.02,14.75,1.03,9.82,3.07,6.51,7.76,5.94,13.03c-.34,3.09.34,6.31-.19,9.37-.26,1.49-.95,2.9-2.01,3.99-1.01,1.03-2.02,1.85-2.04,3.43-.03,2.15,1.62,3.59,3.67,3.64,3.45.09,6.9.06,10.36.03-.27.59-.43,1.23-.44,1.88.03,1.98,1.25,3.67,3.09,4.36,1.72.65,3.86.08,5.03-1.34,1.14-1.39,1.44-3.3.7-4.93h6.56c1.41,0,2.85.08,4.26,0,3.03-.18,4.37-3.75,2.52-5.96Zm-19.44,7.59c0-.14,0-.08,0,0h0Zm2.68,2.05h0c.08-.03.16-.05,0,0Zm1.11-1.41c-.03.14-.08.27-.12.41,0,0,0,0,0,0-.04.07-.08.15-.12.23-.03.05-.07.1-.1.15,0,0,.01-.01.01,0,0,0-.01.01-.02.02,0,0,0,0,0,.01-.08.13-.07.09-.04.04-.08.09-.21.22-.22.23-.02.02-.04.04-.06.06-.01.01-.01,0-.02.02-.01.01-.03.02-.04.03-.05.03-.35.18-.42.23-.06.02-.13.04-.19.06-.06.02-.11.03-.17.04-.06.01-.29,0-.08.02.23.02-.05,0-.09,0-.08,0-.15,0-.23,0-.07,0-.15,0-.22-.01,0,0,0,0,0,0-.16-.04-.32-.08-.48-.14-.07-.05-.17-.08-.24-.13-.05-.03-.1-.06-.14-.09-.02-.01-.03-.02-.05-.03,0,0,0,0-.02-.02-.1-.1-.2-.2-.3-.3,0,0,0,0-.01,0-.04-.07-.09-.13-.13-.2-.04-.07-.08-.15-.12-.23,0,0,0,0,0,0-.05-.14-.08-.29-.12-.43,0,.01,0,.03,0,.04,0,0,0-.03,0-.07,0-.01,0-.02,0-.03-.03-.1-.01-.08,0-.04,0-.1-.02-.21-.02-.23,0-.07,0-.14,0-.22.03-.09.07-.34.09-.39,0-.01.04-.11.07-.17.08-.14.15-.27.24-.4.05-.04.09-.1.13-.14.04-.04.08-.08.12-.12l.03-.02c.08-.04.29-.2.32-.22.05-.03.1-.05.15-.08,0,0,0,0,.01,0,0,0,.01,0,.02,0,.14-.04.27-.08.41-.11-.02,0-.03,0-.04,0,0,0,.03,0,.07,0,.03,0,.04,0,.05,0,0,0,.01,0,.02,0,0,0,0,0,0,0,.01,0,.02,0,.03,0,.07,0,.14,0,.22,0,.09,0,.17,0,.26,0,.08.02.16.04.24.06.06.02.12.04.18.06,0,0-.02-.01-.02-.02,0,0,.02.01.03.02.02,0,.04.01.06.02.12.04.06.03-.01,0,.1.05.27.14.3.16.04.03.09.06.13.09,0,0,0,0,0,0,.02.02.2.21.29.3-.04-.06-.06-.11,0,0,0,.02.02.03.03.05,0,0,.03.03.03.03,0,0-.01,0-.02-.01.03.05.07.1.1.16.03.05.06.1.08.15,0,.01.01.02.02.03.02.09.12.34.13.37.01.06.03.11.04.17,0,0,0,0,0,0,0,.01,0,.02,0,.03,0,.14.01.27,0,.41,0,.02,0,.03,0,.05,0-.02,0-.03.02-.05-.02.05-.02.12-.03.17Zm13-4.98c-.41.08-.92,0-1.34,0H7.27c-.63,0-2.19.31-2.68-.27-.83-.98,1.19-2.28,1.7-2.92.86-1.08,1.51-2.32,1.88-3.65.79-2.83.38-6.13.39-9.04.01-4.26,1.95-8.32,5.67-10.57,4.12-2.49,9.48-2.03,13.11,1.13,2,1.74,3.33,4.08,3.87,6.67.34,1.61.24,3.3.24,4.94,0,1.43-.04,2.86,0,4.29.1,3.03,1.45,5.86,3.8,7.78.66.64.36,1.48-.46,1.64Z"/>
</svg>