<?xml version="1.0" encoding="UTF-8"?><svg id="Laag_2" xmlns="http://www.w3.org/2000/svg" viewBox="0 0 356.52 159.21"><defs><style>.cls-1{fill:#010101;}.cls-1,.cls-2,.cls-3,.cls-4{stroke-width:0px;}.cls-3{fill:#a0c49d;}.cls-4{fill:#1d1d1b;}</style></defs><g id="Laag_1-2"><path class="cls-1" d="m261.38,45.95c-2.51,2.79-4.17,5.69-4.66,9.2,5.8-10.22,14.75-14.75,26.27-14.75-2.21,2.68-3.96,5.52-4.22,9.12.27-.45.52-.91.8-1.35.3-.49.62-.96.93-1.44,6.38-9.83,20.17-14.54,31.2-10.6,3.78,1.35,6.94,3.56,8.68,7.33,2,4.33,1.4,8.46-1.22,12.36-2.26,3.37-5.71,4.76-9.45,5.69-2.32.58-4.64,1.18-6.97,1.76-2.51.63-5.02,1.23-7.53,1.88-6.27,1.62-12.53,3.28-18.81,4.88-4.39,1.12-8.78,2.18-13.18,3.26-4.54,1.12-9.05,2.34-13.63,3.28-1.46.3-3.13.05-4.61-.32-7.97-2.04-11.71-10.13-8.14-17.54,2.42-5.03,6.58-8.24,11.57-10.42,3.57-1.55,7.32-2.36,11.23-2.39.49,0,.98.04,1.73.07Z"/><path class="cls-1" d="m288.51,92.47c-10.13,2.59-20.25,5.19-30.39,7.75-5.2,1.31-9.94-.4-12.73-4.63-.64-.97-1.01-2.12-1.46-3.2-.24-.58.01-.95.61-1.11.3-.08.59-.16.89-.23,7.8-1.99,15.6-4,23.41-5.95.69-.17,1.53-.15,2.2.07,4.89,1.61,9.77,3.25,14.62,4.97,1.13.4,1.89.21,2.76-.59,4.5-4.18,9.04-8.31,13.59-12.42.48-.44,1.14-.78,1.77-.95,7.38-1.92,14.78-3.8,22.18-5.68,1.45-.37,1.55-.31,1.83,1.12,1.06,5.31-2.28,11-7.45,12.68-.72.23-1.46.43-2.2.62-9.87,2.52-19.74,5.04-29.61,7.56h0Z"/><path class="cls-3" d="m235.64,72.16c.31.36.55.64.79.93,2.85,3.56,6.69,5.27,11.11,5.61,1.7.13,3.49-.23,5.19-.62,3.85-.89,7.67-1.91,11.49-2.91,4.09-1.06,8.17-2.16,12.26-3.2,5.1-1.3,10.21-2.53,15.3-3.83,5.31-1.36,10.61-2.77,15.92-4.14,1.73-.45,3.52-.7,5.2-1.28,6.19-2.15,9.71-6.56,10.67-13.04.02-.15.04-.3.09-.64,3.38.95,6.68,1.93,8.57,5.13,1.65,2.8-.16,6.13-3.4,6.38-1.7.13-3.42.03-5.13.04-2.46.03-4.01,1.43-5.1,3.46-.48.91-.85,1.88-1.28,2.81-1.05,2.27-2.5,3.08-4.98,2.6-1.41-.28-2.76-.87-4.17-1.19-1.58-.36-3.19-.74-4.8-.81-1.82-.08-3.31.84-4.33,2.37-.76,1.14-1.38,2.37-2.08,3.55-1.23,2.06-2.73,2.68-5.03,2.01-1.02-.3-1.98-.78-2.98-1.17-1.1-.43-2.18-.94-3.32-1.23-3.26-.84-5.36.05-7.03,2.95-.82,1.42-1.73,2.7-3.34,3.29-1.97.73-3.87.72-5.69-.47-1.9-1.24-3.94-1.99-6.16-1.06-1.17.49-2.27,1.23-3.29,2-1.49,1.12-2.82,2.46-4.33,3.55-2.28,1.65-3.8,1.48-5.98-.3-1.08-.89-2.18-1.79-3.4-2.47-1.72-.96-3.41-.53-4.92.61-.82.62-1.57,1.33-2.36,1.99-1.64,1.37-3.42,1.38-5.24.45-1.85-.95-2.57-2.56-2.38-4.56.27-2.89,1.99-4.93,4.13-6.83h0Z"/><path class="cls-1" d="m263.12,80.13c1.33-.69,2.5-.99,3.75-.41.76.35,1.48.78,2.22,1.18,3.71,1.97,8.3.78,10.59-2.74.27-.42.52-.84.78-1.27,1.12-1.85,2.3-2.44,4.41-1.93,1.14.27,2.21.82,3.32,1.21,1.51.53,2.99,1.21,4.54,1.48,2.24.38,4.15-.47,5.45-2.38.66-.97,1.2-2.04,1.78-3.07,1.54-2.72,3.49-3.4,6.54-2.19-.17.21-.29.42-.47.58-6.22,5.69-12.44,11.38-18.68,17.04-.32.29-.99.49-1.37.36-7.31-2.44-14.6-4.93-21.9-7.41-.27-.09-.52-.24-.95-.45h0Z"/><path class="cls-1" d="m265.8,83.62c-.38.12-.76.25-1.15.35-5.65,1.44-11.32,2.82-16.95,4.35-3.08.84-5.41-.54-5.91-4.3-.16-1.18,2.29-2.48,3.56-1.83.8.41,1.55.98,2.22,1.58,3.95,3.53,6.84,3.73,10.7.12,1.95-1.82,3.67-2.38,5.99-1.07.47.27,1.04.37,1.56.54,0,.08-.01.16-.02.24h0Z"/><path class="cls-1" d="m317.76,70.41c.83-1.67,1.63-3.21,2.37-4.78,1.1-2.33,2.27-3.15,4.57-3.04.31.02.77.22.89.46,1.27,2.56.03,5.3-2.72,6.05-1.71.46-3.44.88-5.11,1.31h0Z"/><path class="cls-1" d="m312.29,71.72l-5.79,1.48c1.81-2.46,2.19-2.56,5.79-1.48Z"/><path class="cls-1" d="m30.95,85.01c-2.6,2.71-4.35,5.55-4.95,9.04,6.12-10.03,15.21-14.27,26.72-13.91-2.29,2.61-4.13,5.39-4.51,8.98.28-.44.55-.89.84-1.33.32-.48.65-.94.97-1.41,6.69-9.62,20.62-13.89,31.52-9.61,3.74,1.47,6.82,3.78,8.44,7.6,1.86,4.4,1.13,8.5-1.61,12.32-2.36,3.3-5.86,4.58-9.62,5.39-2.34.51-4.68,1.03-7.02,1.54-2.53.55-5.06,1.07-7.58,1.64-6.32,1.42-12.63,2.88-18.95,4.28-4.42.98-8.85,1.9-13.27,2.85-4.57.97-9.12,2.05-13.72,2.84-1.47.25-3.13-.05-4.6-.47-7.9-2.29-11.38-10.49-7.57-17.79,2.58-4.95,6.83-8.03,11.9-10.04,3.61-1.44,7.39-2.13,11.3-2.04.49.01.97.07,1.72.12Z"/><path class="cls-1" d="m56.59,132.37c-10.21,2.26-20.41,4.54-30.62,6.78-5.23,1.15-9.92-.71-12.58-5.03-.61-.99-.94-2.15-1.36-3.25-.23-.58.04-.95.64-1.09.3-.07.6-.14.89-.2,7.86-1.74,15.72-3.5,23.58-5.2.69-.15,1.53-.1,2.2.14,4.84,1.76,9.66,3.56,14.46,5.43,1.12.43,1.88.27,2.77-.51,4.63-4.03,9.29-8.02,13.98-11.99.5-.42,1.16-.74,1.8-.89,7.44-1.68,14.89-3.32,22.34-4.98,1.46-.32,1.56-.26,1.8,1.18.89,5.34-2.63,10.93-7.85,12.43-.73.21-1.48.38-2.22.55-9.95,2.21-19.89,4.41-29.84,6.62h0Z"/><path class="cls-3" d="m4.39,110.38c.3.37.53.66.76.95,2.74,3.64,6.52,5.48,10.92,5.96,1.7.19,3.5-.12,5.2-.45,3.88-.76,7.72-1.67,11.58-2.54,4.12-.93,8.23-1.9,12.36-2.81,5.13-1.13,10.28-2.21,15.42-3.34,5.35-1.19,10.69-2.43,16.04-3.63,1.74-.39,3.54-.58,5.24-1.12,6.26-1.95,9.92-6.25,11.08-12.69.03-.15.05-.3.11-.63,3.34,1.05,6.62,2.14,8.41,5.4,1.56,2.85-.35,6.12-3.6,6.27-1.71.08-3.42-.08-5.13-.12-2.46-.05-4.06,1.31-5.21,3.3-.51.89-.91,1.85-1.37,2.77-1.13,2.23-2.6,3-5.06,2.44-1.4-.32-2.73-.96-4.13-1.33-1.57-.41-3.17-.84-4.78-.96-1.82-.14-3.34.74-4.4,2.23-.79,1.12-1.45,2.33-2.2,3.48-1.29,2.02-2.81,2.59-5.09,1.85-1.01-.33-1.96-.84-2.94-1.26-1.09-.46-2.15-1.01-3.28-1.34-3.23-.94-5.35-.12-7.12,2.73-.86,1.39-1.82,2.64-3.45,3.18-1.99.67-3.89.6-5.68-.65-1.86-1.3-3.88-2.11-6.12-1.26-1.19.45-2.31,1.16-3.36,1.9-1.53,1.08-2.9,2.37-4.44,3.41-2.33,1.57-3.85,1.36-5.97-.49-1.05-.92-2.12-1.86-3.32-2.57-1.69-1.01-3.39-.64-4.93.45-.84.59-1.61,1.28-2.42,1.91-1.68,1.32-3.46,1.27-5.25.29-1.82-1-2.49-2.64-2.23-4.63.37-2.88,2.14-4.87,4.35-6.7h0Z"/><path class="cls-1" d="m31.61,119.22c1.35-.65,2.53-.91,3.76-.29.75.38,1.46.83,2.19,1.25,3.64,2.08,8.28,1.04,10.67-2.4.28-.41.55-.83.82-1.24,1.18-1.82,2.38-2.36,4.47-1.79,1.13.31,2.18.89,3.28,1.32,1.49.57,2.95,1.31,4.49,1.62,2.22.45,4.16-.34,5.52-2.21.69-.95,1.26-2,1.87-3.01,1.63-2.67,3.59-3.29,6.6-1.98-.17.2-.31.41-.49.56-6.4,5.49-12.79,10.98-19.22,16.44-.33.28-1,.46-1.38.32-7.23-2.67-14.44-5.39-21.65-8.1-.27-.1-.51-.26-.93-.48h0Z"/><path class="cls-1" d="m34.18,122.8c-.39.1-.77.22-1.16.31-5.7,1.26-11.4,2.46-17.08,3.81-3.11.74-5.39-.72-5.77-4.48-.12-1.19,2.37-2.4,3.61-1.71.79.44,1.52,1.02,2.17,1.65,3.83,3.65,6.71,3.94,10.69.46,2.01-1.76,3.74-2.26,6.02-.88.46.28,1.02.4,1.54.59,0,.08-.02.16-.02.24h0Z"/><path class="cls-1" d="m86.52,111.24c.88-1.64,1.73-3.16,2.52-4.71,1.17-2.3,2.37-3.08,4.66-2.89.31.02.76.24.88.49,1.19,2.6-.14,5.3-2.91,5.96-1.73.41-3.47.77-5.15,1.15h0Z"/><path class="cls-1" d="m81.01,112.38l-5.83,1.29c1.89-2.4,2.27-2.49,5.83-1.29Z"/><path class="cls-3" d="m10.38,46.58S-1.97,1.97,62.21.07c0,0,25.15-1.33,34.88,21.27,0,0,6.7-.28,11.83,5.89,0,0,1.8-.66,6.46,1.95,0,0,8.07-8.19,16.99-5.85,0,0,4.94-.04,11.82,5.04,0,0,6.25-5.95,17.42-5.04,0,0,4.08-.37,10.49,4.71,0,0,2.61-1.95,5.93-2.28,0,0,9.62-27.1,25.89-25.7,0,0,12.79-.43,16.96,10.46,0,0,11.84,1.27,15.82,14.3,0,0,15.38.44,19.3,15,0,0,1.01,5.25,0,9.75,0,0,6.2,9.62-3.1,21.14,0,0,16.96,2.58,15.51,24.52,0,0,.06-.84,4.56.29,0,0,10.25-5,19.75,1.84,0,0,7.47-6.33,18.23-3.16,0,0,15.85-37.25,39.21-18.26,0,0,16.52,11.2-3.7,42.72,0,0,8.07,9.97-3.8,24.4-11.87,14.43-28.58,7.12-28.58,7.12,0,0-17.13,6.67-30.76-2.75,0,0-11.77,8.92-24.02,2.56,0,0-14.24,6.84-27.06.66,0,0-11.39,5.51-20.41.47,0,0-7.97,3.61-15.95-1.33,0,0-5.98,4.56-13.67,1.04,0,0-8.26,3.13-16.52-.85,0,0-9.97,5.32-18.32.09,0,0-16.99,7.03-28.96-.28,0,0-24.49,23.26-53.93-3.32,0,0-18.04-22.04,6.65-37.26,0,0-4.37-12.55,3.99-24.77,0,0-10.44,5.26-27.34-2.72,0,0-33.42,14.73-43.67-14.09,0,0-3.8-10.42,6.27-21.05Z"/><path class="cls-4" d="m42.25,54.57c4.61-11.38,7.51-28.49,18.3-33.77,1.56-.74,2.53-.97,3.64-.97,1.26,0,2.08.3,2.08.89,0,.74-1.27,1.56-3.12,5.13-4.46,8.7-6.55,22.98-12.87,32.87,4.02,2.08,8.11,3.72,12.49,3.72,7.14,0,11.68-4.76,11.68-11.01,0-4.83-3.12-7.96-6.47-9.45-1.34.37-2.6.52-3.72.52-2.75,0-4.09-1.12-4.09-2.6s1.34-2.83,4.46-2.83c1.19,0,2.68.15,3.94.52,3.57-2.08,6.55-5.58,6.55-10.56,0-6.77-6.4-10.86-16.14-10.86-15.47,0-25.96,7.81-25.96,16.44,0,3.42,2.01,6.1,5.21,6.1,2.53,0,4.69-1.26,5.28-1.71.3-.22.45-.37.74-.37.52,0,.89.45.89,1.56,0,3.64-3.72,8.92-10.86,8.92-6.1,0-11.01-3.94-11.01-10.86,0-12.27,14.73-24.1,36.96-24.1,17.18,0,23.95,7.59,23.95,14.13,0,5.43-4.02,10.41-10.19,13.46,5.88,2.75,10.34,8.26,10.34,14.73,0,8.85-7.66,15.47-18.89,15.47-7.81,0-13.53-3.35-18.59-6.69-3.87,3.94-8.85,6.47-15.92,6.47-8.63,0-13.24-3.79-13.24-9.07s4.98-9.22,12.35-9.22c4.46,0,8.48,1.41,12.2,3.12Zm-2.01,4.39c-2.68-1.64-5.36-2.75-8.26-2.75-3.87,0-5.95,2.01-5.95,4.54s2.31,4.54,5.65,4.54c3.79,0,6.4-2.53,8.55-6.32Z"/><path class="cls-4" d="m94.9,44.75c-1.71-1.56-2.9-3.5-2.9-5.88,0-2.97,1.79-5.43,4.24-5.43,1.86,0,3.2,1.71,3.2,4.46,0,1.19-.15,2.45-.45,3.87h.67c2.16,0,4.91-.74,6.1-1.64.74-.59,1.34-.82,1.79-.82,1.19,0,2.9,1.56,2.9,3.42,0,1.12-.6,2.23-1.49,3.64-1.71,2.75-4.17,6.84-4.17,10.56,0,1.41.82,2.08,1.71,2.08,1.04,0,3.05-.22,8.11-7.44.3-.45.74-.67,1.12-.67.52,0,.97.45.97,1.12,0,.37-.07.74-.37,1.26-5.58,10.04-9.74,12.42-13.76,12.42-3.72,0-6.47-2.6-6.47-6.47,0-3.57,3.05-8.33,5.43-11.23-1.34-.3-2.6-.82-3.79-1.41-2.38,7.29-6.47,14.95-7.96,16.14-.59.45-1.12.6-2.01.6-1.79,0-3.5-1.49-3.5-3.27,0-.3.22-.67.6-.89,3.72-2.53,8.48-9.82,10.04-14.43Z"/><path class="cls-4" d="m138.19,51.66c-1.79,7.36-7.51,14.06-15.4,14.06-6.47,0-9.97-4.54-9.97-10.19,0-7.73,6.54-14.28,10.78-15.84,1.04-2.68,3.72-4.39,6.55-4.39,4.61,0,8.63,4.31,8.63,11.6,0,.59-.07,1.19-.07,1.79,4.54-.97,7.51-3.64,8.4-4.46.52-.45.82-.59,1.19-.59s.82.3.82.89c0,.3-.15.82-.6,1.41-1.49,2.16-5.58,4.76-10.34,5.73Zm-5.28.3c-4.98-.6-8.55-3.64-9.52-7.29-1.56,2.08-2.75,5.35-2.75,8.55,0,3.87,1.79,7.07,5.06,7.07,3.64,0,6.32-3.79,7.21-8.33Zm.37-3.12v-.37c0-3.87-1.41-6.1-3.12-6.1-.97,0-1.86.74-1.86,2.16,0,2.08,1.86,3.79,4.98,4.31Z"/><path class="cls-4" d="m166.15,51.66c-1.79,7.36-7.51,14.06-15.4,14.06-6.47,0-9.97-4.54-9.97-10.19,0-7.73,6.54-14.28,10.78-15.84,1.04-2.68,3.72-4.39,6.55-4.39,4.61,0,8.63,4.31,8.63,11.6,0,.59-.07,1.19-.07,1.79,4.54-.97,7.51-3.64,8.4-4.46.52-.45.82-.59,1.19-.59s.82.3.82.89c0,.3-.15.82-.6,1.41-1.49,2.16-5.58,4.76-10.34,5.73Zm-5.28.3c-4.98-.6-8.55-3.64-9.52-7.29-1.56,2.08-2.75,5.35-2.75,8.55,0,3.87,1.79,7.07,5.06,7.07,3.64,0,6.32-3.79,7.21-8.33Zm.37-3.12v-.37c0-3.87-1.41-6.1-3.12-6.1-.97,0-1.86.74-1.86,2.16,0,2.08,1.86,3.79,4.98,4.31Z"/><path class="cls-4" d="m188.16,37.61c3.94-13.54,9.97-25.44,16.51-25.44,2.53,0,4.54,2.38,4.54,6.84,0,6.25-6.69,23.8-16.14,35.25v.37c0,3.27.89,5.06,2.53,5.06,1.41,0,4.09-.89,9.15-8.11.3-.45.74-.67,1.12-.67.52,0,.97.45.97,1.12,0,.37-.08.74-.37,1.26-2.75,4.98-5.28,8.03-7.74,9.89-2.45,1.93-4.76,2.53-6.84,2.53-2.53,0-4.61-1.64-5.65-4.24-2.9,3.12-5.95,4.24-8.78,4.24-4.98,0-8.78-3.5-8.78-9.74,0-9.74,7.88-19.04,16.21-19.04,1.26,0,2.31.22,3.27.67Zm-2.9,20.16c-.15-1.12-.22-2.31-.22-3.5,0-1.79.22-4.91.82-7.73,0-.15.08-.3.08-.45-.45-.15-.75-.37-.75-.67,0-.67.6-1.04.6-2.23,0-1.34-.67-2.16-1.93-2.16-2.83,0-7.07,5.35-7.07,12.87,0,3.79,1.64,6.02,3.79,6.02,1.86,0,3.49-1.04,4.69-2.16Zm8.33-8.92c6.25-9.44,11.08-21.57,11.08-25.21,0-.89-.3-1.49-1.04-1.49-2.38,0-8.26,15.47-10.04,26.7Z"/><path class="cls-4" d="m210.39,66.09c-1.71,10.41-4.76,21.42-14.73,21.42-4.17,0-7.96-3.12-7.96-7.14,0-7.44,7.36-10.93,15.1-14.21.45-3.5.67-7.73.97-10.26,1.04-8.4,3.72-18.97,8.78-18.97,3.12,0,4.24,2.38,4.24,4.46,0,3.42-3.27,3.94-5.65,20.01-.07.37-.15.67-.15,1.04,3.57-2.16,5.65-4.69,10.04-10.86.3-.45.74-.67,1.12-.67.52,0,.97.45.97,1.12,0,.37-.08.74-.37,1.26-4.02,7.29-7.14,9.97-12.35,12.79Zm-8.33,4.46c-4.16,2.45-8.48,5.95-8.48,9.97,0,1.78.97,2.83,1.93,2.83,3.27,0,5.21-5.8,6.55-12.79Zm9.45-42.1c0-3.35,2.9-6.02,6.4-6.02s4.98,2.53,4.98,4.69c0,3.35-3.12,5.65-6.62,5.65-2.68,0-4.76-1.79-4.76-4.31Z"/><path class="cls-4" d="m219.24,55.09c0-9,7.66-18.15,15.92-18.15,4.69,0,7.36,2.9,7.36,6.25,0,5.06-5.8,9.97-14.73,11.08.6,3.05,2.45,5.28,5.95,5.28,3.12,0,5.36-1.56,6.84-2.97,1.19-1.12,1.86-2.31,2.45-2.31.52,0,.97.45.97,1.12,0,2.83-5.06,10.34-14.35,10.34-5.06,0-10.41-3.5-10.41-10.64Zm8.4-3.79c4.24-1.12,8.25-4.69,8.25-8.55,0-1.56-.82-2.23-1.56-2.23-2.68,0-6.25,5.5-6.69,10.78Z"/><path class="cls-4" d="m117.18,123.66c0,10.64-10.49,19.26-24.32,19.26-12.42,0-20.01-7.07-20.01-14.58,0-4.98,3.42-9.15,8.25-9.15,2.9,0,5.13,1.93,5.13,3.35s-2.38,2.6-2.38,6.62c0,4.91,3.87,9.44,10.93,9.44,6.62,0,11.75-4.39,11.75-10.64,0-12.49-22.31-13.83-22.31-28.26,0-9.74,10.49-17.18,22.83-17.18,7.44,0,14.35,2.83,14.35,9,0,5.73-5.65,8.18-9.97,8.18-3.64,0-5.28-1.41-5.28-2.6,0-.37.22-.67.59-.74,2.97-.89,4.69-2.45,4.69-4.98,0-2.83-2.6-4.39-5.8-4.39-4.98,0-10.86,3.2-10.86,9.15,0,11.3,22.39,12.35,22.39,27.52Z"/><path class="cls-4" d="m147.75,114.81c3.35-4.24,7.29-7.51,11.3-7.51,2.08,0,4.61,1.26,4.61,5.06,0,5.95-4.76,11.83-4.76,15.25,0,1.12.6,1.79,1.26,1.79,1.04,0,3.05-.22,8.11-7.44.3-.45.74-.67,1.12-.67.52,0,.97.45.97,1.12,0,.37-.07.74-.37,1.26-5.58,10.04-9.67,12.42-13.31,12.42s-5.95-2.53-5.95-6.4c0-5.21,3.35-10.93,3.35-13.02,0-.67-.3-1.26-1.12-1.26-1.12,0-3.2,1.56-5.21,4.09-.6,8.26-4.09,16.21-8.4,16.21-2.31,0-3.64-1.79-3.64-4.24s1.49-6.25,3.87-9.44c.3-1.41.45-2.6.45-3.5,0-1.93-.45-2.6-1.04-2.6-1.93,0-5.8,5.88-8.4,12.79-1.64,4.39-2.08,7.36-4.54,7.36-2.6,0-4.09-1.49-4.98-3.72-.37-.97-.6-3.27-.6-5.21,0-1.79.45-4.46,1.04-7.29,1.41-6.92,3.12-9.97,5.95-9.97,2.23,0,4.02,2.01,4.02,4.16,0,2.31-2.9,5.95-3.79,13.02,3.27-7.96,8.33-18.67,14.8-18.67,1.86,0,4.69,1.19,5.28,6.4Z"/><path class="cls-4" d="m182.55,132.96c-2.6,2.38-5.13,3.12-7.59,3.12-4.76,0-8.55-3.5-8.55-9.59,0-9.74,8.33-19.19,17.03-19.19,3.94,0,6.77,2.38,6.77,4.76,0,.3-.07.52-.07.52,0,0,.3-.07.6-.07,1.56,0,2.75,1.41,2.75,3.27,0,4.09-3.05,9.07-4.76,11.68.22,1.34.82,2.01,1.56,2.01,1.04,0,3.05-.3,8.11-7.51.3-.45.74-.67,1.12-.67.52,0,.97.45.97,1.12,0,.37-.07.74-.37,1.26-5.58,10.04-9.22,12.12-12.72,12.12-2.23,0-3.87-1.04-4.84-2.83Zm-1.04-3.94v-.89c0-3.87,1.26-8.26,3.27-11.45-.82-.15-1.56-.45-1.56-.89,0-.67.6-1.04.6-2.23,0-1.34-.67-2.16-1.93-2.16-2.83,0-7.36,5.35-7.36,12.87,0,3.87,1.64,6.02,4.02,6.02,1.26,0,2.23-.52,2.97-1.26Z"/><path class="cls-4" d="m212.67,132.96c-2.6,2.38-5.13,3.12-7.59,3.12-4.76,0-8.55-3.5-8.55-9.59,0-9.74,8.33-19.19,17.03-19.19,3.94,0,6.77,2.38,6.77,4.76,0,.3-.07.52-.07.52,0,0,.3-.07.6-.07,1.56,0,2.75,1.41,2.75,3.27,0,4.09-3.05,9.07-4.76,11.68.22,1.34.82,2.01,1.56,2.01,1.04,0,3.05-.3,8.11-7.51.3-.45.74-.67,1.12-.67.52,0,.97.45.97,1.12,0,.37-.07.74-.37,1.26-5.58,10.04-9.22,12.12-12.72,12.12-2.23,0-3.87-1.04-4.84-2.83Zm-1.04-3.94v-.89c0-3.87,1.26-8.26,3.27-11.45-.82-.15-1.56-.45-1.56-.89,0-.67.6-1.04.6-2.23,0-1.34-.67-2.16-1.93-2.16-2.83,0-7.36,5.35-7.36,12.87,0,3.87,1.64,6.02,4.02,6.02,1.26,0,2.23-.52,2.97-1.26Z"/><path class="cls-4" d="m241.15,127.23c0-3.35,1.93-4.61,4.31-5.8,3.57-1.79,6.02-4.17,6.02-6.1,0-.74-.52-1.41-1.56-1.41-2.97,0-9,6.92-11.97,14.8-1.64,4.39-2.08,7.36-4.54,7.36-2.6,0-4.09-1.49-4.98-3.72-.37-.97-.59-3.27-.59-5.21,0-1.79.3-4.61.82-7.44,3.05-15.62,11.45-37.19,20.16-37.19,3.64,0,5.5,3.05,5.5,7.51,0,8.26-8.18,20.16-16.88,27.37-.67,2.75-1.27,5.5-1.56,8.11,4.31-8.26,11.38-18.22,18.07-18.22,3.72,0,5.65,2.16,5.65,5.58s-3.57,8.11-10.26,10.19c.45,3.12,1.93,5.5,4.02,5.5,2.97,0,5.58-2.98,8.11-6.62.3-.45.74-.67,1.12-.67.52,0,.97.45.97,1.12,0,.37-.07.74-.37,1.26-5.58,10.04-9.3,12.42-13.76,12.42-5.21,0-8.26-4.76-8.26-8.85Zm-2.38-14.5c5.95-6.55,10.26-13.98,10.26-18.22,0-.52-.08-1.19-.82-1.19-1.93,0-6.4,9.07-9.45,19.41Z"/><path class="cls-4" d="m280.04,118.15c0-3.35-1.19-5.88-3.42-6.32-.45-.07-.82-.37-.82-1.12,0-1.93,2.16-4.69,5.28-4.69,4.24,0,6.17,3.42,6.17,7.81,0,9.3-11.08,22.39-18.97,22.39-5.58,0-7.73-6.4-7.73-11.6,0-8.26,2.31-17.48,7.07-17.48,2.53,0,4.46,1.56,4.46,4.02,0,1.34-.45,2.38-1.04,4.02-1.04,2.75-1.93,6.1-1.93,9.67,0,3.87,1.04,5.95,2.6,5.95,3.42,0,8.33-6.62,8.33-12.64Z"/><path class="cls-4" d="m313.06,122.02c-1.79,7.36-7.51,14.06-15.4,14.06-6.47,0-9.97-4.54-9.97-10.19,0-7.73,6.54-14.28,10.78-15.84,1.04-2.68,3.72-4.39,6.55-4.39,4.61,0,8.63,4.31,8.63,11.6,0,.59-.07,1.19-.07,1.79,4.54-.97,7.51-3.64,8.4-4.46.52-.45.82-.59,1.19-.59s.82.3.82.89c0,.3-.15.82-.6,1.41-1.49,2.16-5.58,4.76-10.34,5.73Zm-5.28.3c-4.98-.6-8.55-3.64-9.52-7.29-1.56,2.08-2.75,5.35-2.75,8.55,0,3.87,1.79,7.07,5.06,7.07,3.64,0,6.32-3.79,7.21-8.33Zm.37-3.12v-.37c0-3.87-1.41-6.1-3.12-6.1-.97,0-1.86.74-1.86,2.16,0,2.08,1.86,3.79,4.98,4.31Z"/><path class="cls-4" d="m327.34,129.61c3.42,0,5.28-4.76,6.69-4.76.52,0,.74.45.74,1.12,0,1.93-4.02,10.12-11.45,10.12-4.24,0-6.99-3.12-6.99-9.52,0-10.71,10.64-44.03,20.68-44.03,3.64,0,5.21,2.6,5.21,7.44,0,7.07-5.65,18.67-16.06,27.52-.67,3.05-1.12,5.95-1.12,8.26,0,3.12,1.19,3.87,2.31,3.87Zm.15-17.03c7.21-7.96,10.12-15.54,10.12-18.07,0-.74-.22-1.19-.82-1.19-1.79,0-6.4,9.67-9.3,19.26Z"/><path class="cls-2" d="m284.12,24.04s-.1-.09-.15-.14c.06.04.11.09.17.13,0,0-.02,0-.02,0Z"/></g></svg>