<svg width="191" height="162" xmlns="http://www.w3.org/2000/svg" xmlns:xlink="http://www.w3.org/1999/xlink" xml:space="preserve" overflow="hidden"><g transform="translate(-95 -95)"><path d="M172.819 3.0631C171.798 0.541821 168.926-0.674548 166.405 0.346268 165.303 0.792305 164.4 1.62167 163.862 2.68138 154.235 19.8184 136.091 30.4075 116.435 30.361L91.1297 30.361C57.5878 30.3713 30.3992 57.5598 30.389 91.1017 30.4336 93.2809 30.5921 95.4563 30.8638 97.619 57.4457 79.2548 89.2064 69.8783 121.5 70.861 124.295 70.9809 126.463 73.3437 126.343 76.1383 126.23 78.765 124.127 80.8687 121.5 80.9814 41.971 81 8.23965 129.73 0.782069 148.034-1.25974 153.249 1.31188 159.131 6.52595 161.172 11.6239 163.169 17.3861 160.757 19.5424 155.725 24.9037 144.6 32.6732 134.808 42.2876 127.058 55.062 144.477 76.1412 153.78 97.619 151.479 147.29 147.876 182.25 103.326 182.25 48.7862 182.264 33.0607 179.054 17.4993 172.819 3.0631Z" fill="#359BAA" transform="matrix(1.00216 0 0 1 99.1641 95.0186)"/></g></svg>