<?xml version="1.0" encoding="UTF-8"?>
<svg id="Layer_1" data-name="Layer 1" xmlns="http://www.w3.org/2000/svg" viewBox="0 0 375 214">
  <defs>
    <style>
      .cls-1 {
        fill: none;
      }

      .cls-1, .cls-2 {
        stroke-width: 0px;
      }

      .cls-2 {
        fill: #a0c49d;
      }

      .cls-3 {
        opacity: .15;
      }
    </style>
  </defs>
  <g class="cls-3">
    <path class="cls-1" d="m77.89,199.54c-26.01-6.63-52.49-9.44-77.89-8.68v23.14h119.24c-12.5-5.76-26.35-10.63-41.35-14.46Z"/>
    <path class="cls-1" d="m106.75,125.03c60.36,15.39,104.56,47.11,121.26,87.03.27.64.55,1.29.82,1.94h45.14c-8.69-16.45-16.67-33.35-23.91-50.66-14.25-34.07-53.52-61.54-107.75-75.36C93.06,75.43,42.15,76.54,0,89.69v27.81c34.23-3.9,70.96-1.59,106.75,7.54h0Z"/>
    <path class="cls-1" d="m82.83,180.16c29.86,7.61,55.75,19.22,76.32,33.84h47.7c-16.1-31.39-53.93-56.56-105.05-69.59-34.3-8.74-69.41-10.86-101.81-6.9v33.4c27.12-.78,55.26,2.22,82.83,9.24h.01Z"/>
    <path class="cls-1" d="m178.47,14.51c60.36,15.38,104.56,47.11,121.26,87.03,12.68,30.34,32.56,70.32,62.17,112.46h13.1V-433.86c-1.1.02-2.21.04-3.33.04-36.2,0-84.51-10.44-139.46-30.8-80.18-29.7-165.84-78.21-216.74-133.38H0V26.23C49.95,3.4,115.68-1.5,178.47,14.51Z"/>
    <path class="cls-1" d="m147.25,68.59c60.36,15.39,104.56,47.11,121.26,87.03,7.06,16.9,16.36,36.79,28.33,58.38h40.61c-21.91-32.79-40.73-67.83-56.16-104.74-14.25-34.07-53.52-61.54-107.75-75.36C111.36,18.05,46.49,23.96.01,48.43v20.51c44.52-12.56,96.83-13.19,147.25-.34h-.01Z"/>
    <path class="cls-2" d="m101.81,144.41c51.12,13.03,88.94,38.2,105.05,69.59h21.97c-.27-.65-.55-1.3-.82-1.94-16.7-39.92-60.9-71.64-121.26-87.03C70.97,115.91,34.23,113.59,0,117.49v20.02c32.4-3.96,67.51-1.85,101.81,6.9h0Z"/>
    <path class="cls-2" d="m142.31,87.97c54.22,13.82,93.5,41.29,107.75,75.36,7.24,17.31,15.22,34.21,23.91,50.66h22.87c-11.96-21.59-21.26-41.48-28.33-58.38-16.7-39.92-60.89-71.64-121.26-87.03-50.42-12.85-102.73-12.22-147.25.34v20.76c42.15-13.15,93.06-14.26,142.31-1.71Z"/>
    <path class="cls-2" d="m173.53,33.89c54.22,13.82,93.5,41.29,107.75,75.36,15.43,36.91,34.25,71.95,56.16,104.74h24.46c-29.61-42.14-49.49-82.12-62.17-112.46-16.7-39.92-60.89-71.64-121.26-87.03C115.68-1.51,49.94,3.39,0,26.22v22.19c46.48-24.47,111.35-30.38,173.53-14.53h0Z"/>
    <path class="cls-2" d="m77.89,199.54c15,3.82,28.85,8.7,41.35,14.46h39.92c-20.58-14.62-46.47-26.23-76.32-33.84-27.57-7.03-55.71-10.02-82.83-9.24v19.94c25.41-.75,51.88,2.05,77.89,8.68h-.01Z"/>
  </g>
</svg>