<?xml version="1.0" encoding="UTF-8"?>
<svg id="Layer_1" data-name="Layer 1" xmlns="http://www.w3.org/2000/svg" xmlns:xlink="http://www.w3.org/1999/xlink" viewBox="0 0 375 167.7">
  <defs>
    <style>
      .cls-1 {
        stroke-width: 0px;
      }

      .cls-1, .cls-2 {
        fill: none;
      }

      .cls-2 {

        stroke: #a0c49d;
        stroke-miterlimit: 10;
        stroke-width: 20px;
      }

      .cls-3 {
        clip-path: url(#clippath);
      }
    </style>
    <clipPath id="clippath">
      <rect class="cls-1" x="-581.58" y="-1430.79" width="380.36" height="2003.82" transform="translate(175.72 -553.4) rotate(-60)"/>
    </clipPath>
  </defs>
  <g id="Group_14" data-name="Group 14">
    <g class="cls-3">
      <g id="Group_9" data-name="Group 9">
        <path id="Path_3" data-name="Path 3" class="cls-2" d="m-1300.5-830.84c92.2-73.88,282.51-41.56,320.52,49.33,32.57,77.9,113.54,224.97,293.46,305.16,250.29,111.53,228.71,32.95,333.93,48.46C-205.27-406.18-27.84-260.88,8.01-127.08,43.87,6.72,371.86,138.25,443.03,89.62"/>
        <path id="Path_4" data-name="Path 4" class="cls-2" d="m-1260.01-887.28c92.2-73.87,282.51-41.56,320.52,49.33,32.57,77.9,113.54,224.97,293.46,305.16,250.29,111.53,228.71,32.95,333.93,48.46C-164.77-462.62,12.66-317.31,48.51-183.51,84.37-49.72,412.36,81.82,483.53,33.18"/>
        <path id="Path_6" data-name="Path 6" class="cls-2" d="m-1324.42-775.71c92.2-73.87,282.51-41.56,320.52,49.33,32.57,77.9,113.54,224.97,293.46,305.16,250.29,111.53,228.71,32.95,333.93,48.46C-229.18-351.05-51.75-205.74-15.9-71.95,19.95,61.85,347.94,193.39,419.12,144.75"/>
      </g>
    </g>
  </g>
</svg>