<?xml version="1.0" encoding="UTF-8"?>
<svg id="Layer_1" data-name="Layer 1" xmlns="http://www.w3.org/2000/svg" viewBox="0 0 375 812">
  <defs>
    <style>
      .cls-1 {
        fill: none;
      }

      .cls-1, .cls-2 {
        stroke-width: 0px;
      }

      .cls-3 {
        opacity: .15;
      }

      .cls-2 {
        fill: #a0c49d;
      }
    </style>
  </defs>
  <g class="cls-3">
    <path class="cls-1" d="m77.89,797.54c-26.01-6.63-52.49-9.44-77.89-8.68v23.14h119.24c-12.5-5.76-26.35-10.63-41.35-14.46Z"/>
    <path class="cls-1" d="m106.75,723.03c60.36,15.39,104.56,47.11,121.26,87.03.27.64.55,1.29.82,1.94h45.14c-8.69-16.45-16.67-33.35-23.91-50.66-14.25-34.07-53.52-61.54-107.75-75.36-49.25-12.55-100.16-11.44-142.31,1.71v27.81c34.23-3.9,70.96-1.59,106.75,7.54Z"/>
    <path class="cls-1" d="m82.83,778.16c29.86,7.61,55.75,19.22,76.32,33.84h47.7c-16.1-31.39-53.93-56.56-105.05-69.59-34.3-8.74-69.41-10.86-101.81-6.9v33.4c27.12-.78,55.26,2.22,82.83,9.24Z"/>
    <path class="cls-1" d="m375,24.63V0h-79.51c2.69,1.03,5.38,2.06,8.08,3.06,25.04,9.28,49.19,16.55,71.43,21.57Z"/>
    <path class="cls-1" d="m178.47,612.51c60.36,15.38,104.56,47.11,121.26,87.03,12.68,30.34,32.56,70.32,62.17,112.46h13.1V164.14c-1.1.02-2.21.04-3.33.04-36.2,0-84.51-10.44-139.46-30.8C152.03,103.68,66.37,55.17,15.47,0H0v624.23c49.95-22.83,115.68-27.73,178.47-11.72Z"/>
    <path class="cls-1" d="m370.36,87.4c1.57.19,3.11.36,4.64.51v-42.72c-23.91-5.15-50.27-12.97-78.38-23.38-17.36-6.43-34.97-13.74-52.43-21.81h-103.65c36.94,22.86,79.22,43.45,122.52,59.5,39.25,14.54,76.35,24.19,107.29,27.91Z"/>
    <path class="cls-1" d="m239.15,114.63c39.25,14.54,76.35,24.19,107.29,27.91,10.41,1.25,19.98,1.79,28.56,1.63v-36.12c-33.14-3.06-73.78-13.08-118.88-29.79C204.1,58.98,149.77,31.79,104.12,0h-60.64c11.06,10.5,23.73,21.01,37.95,31.45,43.89,32.22,99.9,61.75,157.73,83.18Z"/>
    <path class="cls-1" d="m147.25,666.59c60.36,15.39,104.56,47.11,121.26,87.03,7.06,16.9,16.36,36.79,28.33,58.38h40.61c-21.91-32.79-40.73-67.83-56.16-104.74-14.25-34.07-53.52-61.54-107.75-75.36-62.18-15.85-127.05-9.94-173.53,14.53v20.51c44.52-12.56,96.83-13.19,147.25-.34Z"/>
    <path class="cls-2" d="m101.81,742.41c51.12,13.03,88.94,38.2,105.05,69.59h21.97c-.27-.65-.55-1.3-.82-1.94-16.7-39.92-60.9-71.64-121.26-87.03-35.78-9.12-72.52-11.44-106.75-7.54v20.02c32.4-3.96,67.51-1.85,101.81,6.9Z"/>
    <path class="cls-2" d="m142.31,685.97c54.22,13.82,93.5,41.29,107.75,75.36,7.24,17.31,15.22,34.21,23.91,50.66h22.87c-11.96-21.59-21.26-41.48-28.33-58.38-16.7-39.92-60.89-71.64-121.26-87.03-50.42-12.85-102.73-12.22-147.25.34v20.76c42.15-13.15,93.06-14.26,142.31-1.71Z"/>
    <path class="cls-2" d="m173.53,631.89c54.22,13.82,93.5,41.29,107.75,75.36,15.43,36.91,34.25,71.95,56.16,104.74h24.46c-29.61-42.14-49.49-82.12-62.17-112.46-16.7-39.92-60.89-71.64-121.26-87.03-62.79-16.01-128.53-11.11-178.47,11.72v22.19c46.48-24.47,111.35-30.38,173.53-14.53Z"/>
    <path class="cls-2" d="m77.89,797.54c15,3.82,28.85,8.7,41.35,14.46h39.92c-20.58-14.62-46.47-26.23-76.32-33.84-27.57-7.03-55.71-10.02-82.83-9.24v19.94c25.41-.75,51.88,2.05,77.89,8.68Z"/>
    <path class="cls-2" d="m375,108.04v-20.13c-1.53-.16-3.07-.32-4.64-.51-30.94-3.71-68.04-13.37-107.29-27.91C219.77,43.45,177.48,22.86,140.54,0h-36.42c45.65,31.79,99.98,58.98,152,78.25,45.11,16.71,85.74,26.74,118.88,29.79Z"/>
    <path class="cls-2" d="m375,45.19v-20.56c-22.24-5.02-46.39-12.3-71.43-21.57-2.7-1-5.39-2.02-8.08-3.06h-51.3c17.46,8.07,35.08,15.38,52.43,21.81,28.11,10.41,54.47,18.23,78.38,23.38Z"/>
    <path class="cls-2" d="m232.21,133.38c54.95,20.36,103.26,30.8,139.46,30.8,1.13,0,2.23-.02,3.33-.04v-19.98c-8.57.15-18.15-.38-28.56-1.63-30.94-3.71-68.04-13.37-107.29-27.91-57.82-21.42-113.84-50.96-157.73-83.18C67.21,21.01,54.54,10.5,43.48,0H15.47c50.9,55.17,136.56,103.68,216.74,133.38Z"/>
  </g>
</svg>