<?xml version="1.0" encoding="UTF-8"?>
<svg id="Layer_1" data-name="Layer 1" xmlns="http://www.w3.org/2000/svg" viewBox="0 0 375 208.87">
  <defs>
    <style>
      .cls-1 {
        fill: #262626;
        stroke-width: 0px;
      }
    </style>
  </defs>
  <g id="Group_9" data-name="Group 9">
    <path class="cls-1" d="m1595.52,1102.22c-36.2,0-84.52-10.44-139.46-30.8-112.98-41.85-236.88-121.04-259-203.61-16.46-61.45-65.75-129.73-135.22-187.33-69.14-57.33-148.29-96.03-217.18-106.19-32.57-4.8-52.13-.09-72.84,4.9-16.19,3.9-32.59,7.85-54.75,7.85-39.97,0-98.71-12.84-208.96-61.96-80.23-35.76-149.41-88.31-205.62-156.19-38.22-46.16-69.5-98.05-93-154.24-14.25-34.07-53.52-61.54-107.75-75.36-73.68-18.78-151.13-7.01-197.3,29.98l-12.51-15.61C-57.16,112.87,27.13,99.61,106.69,119.89c60.36,15.39,104.56,47.11,121.26,87.03,32.89,78.67,114.07,222.23,288.3,299.88,165.14,73.59,208.73,63.09,250.88,52.94,21.65-5.21,44.03-10.6,80.44-5.24,72.4,10.68,155.15,50.98,227.03,110.58,72.59,60.19,124.26,132.19,141.78,197.55,9.08,33.88,39.82,70.83,88.91,106.86,43.89,32.22,99.9,61.75,157.72,83.18,39.25,14.54,76.36,24.19,107.29,27.91,30.54,3.67,53.91,1.21,65.8-6.91l11.28,16.51c-11.81,8.07-29.54,12.04-51.86,12.05Z"/>
    <path class="cls-1" d="m1636.02,1045.78c-36.2,0-84.52-10.45-139.46-30.8-112.98-41.85-236.88-121.05-259-203.62-16.47-61.45-65.75-129.72-135.22-187.33-69.14-57.33-148.29-96.03-217.18-106.19-32.57-4.8-52.13-.09-72.84,4.9-16.19,3.9-32.59,7.85-54.75,7.85-39.97,0-98.71-12.84-208.96-61.96-80.23-35.76-149.41-88.31-205.62-156.19-38.22-46.16-69.5-98.05-93-154.24-14.25-34.07-53.52-61.54-107.75-75.36-73.68-18.78-151.13-7.01-197.3,29.98l-12.51-15.61C-16.66,56.43,67.64,43.17,147.19,63.45c60.36,15.39,104.56,47.11,121.26,87.03,32.89,78.67,114.08,222.24,288.31,299.88,165.14,73.59,208.73,63.09,250.88,52.94,21.65-5.21,44.04-10.6,80.44-5.24,72.4,10.68,155.15,50.98,227.03,110.58,72.59,60.19,124.26,132.19,141.78,197.55,9.08,33.88,39.82,70.83,88.91,106.86,43.89,32.22,99.9,61.75,157.73,83.18,39.25,14.54,76.35,24.19,107.29,27.91,30.54,3.67,53.9,1.21,65.79-6.91l11.28,16.51c-11.82,8.07-29.53,12.05-51.86,12.05Z"/>
    <path class="cls-1" d="m1667.24,991.7c-36.2,0-84.52-10.45-139.46-30.8-112.98-41.85-236.88-121.05-259-203.61-16.47-61.45-65.75-129.73-135.22-187.33-69.14-57.33-148.29-96.03-217.18-106.19-32.58-4.8-52.13-.09-72.84,4.9-16.19,3.9-32.59,7.85-54.75,7.85-39.97,0-98.71-12.84-208.96-61.96-80.23-35.76-149.41-88.31-205.62-156.19-38.22-46.16-69.5-98.05-93-154.24-14.25-34.07-53.52-61.54-107.75-75.36C99.79,9.97,22.34,21.74-23.83,58.74l-12.51-15.61C14.57,2.34,98.86-10.91,178.41,9.37c60.36,15.38,104.56,47.11,121.26,87.03,32.89,78.67,114.08,222.24,288.31,299.88,165.14,73.59,208.73,63.09,250.88,52.94,21.65-5.21,44.04-10.6,80.44-5.24,72.4,10.68,155.15,50.98,227.03,110.58,72.59,60.19,124.26,132.19,141.78,197.55,9.08,33.88,39.82,70.83,88.91,106.86,43.89,32.21,99.9,61.75,157.72,83.18,39.25,14.54,76.36,24.19,107.29,27.91,30.54,3.67,53.91,1.21,65.8-6.91l11.28,16.51c-11.81,8.07-29.54,12.04-51.86,12.05Z"/>
    <path class="cls-1" d="m1571.61,1157.35c-36.2,0-84.52-10.45-139.46-30.8-112.98-41.85-236.88-121.04-259-203.61-16.47-61.45-65.75-129.73-135.22-187.33-69.14-57.33-148.29-96.03-217.18-106.19-32.57-4.8-52.13-.09-72.84,4.9-16.19,3.9-32.59,7.85-54.75,7.85-39.97,0-98.71-12.84-208.96-61.96-80.23-35.76-149.41-88.31-205.62-156.19-38.22-46.16-69.5-98.05-93-154.24-14.25-34.07-53.52-61.54-107.75-75.36-73.68-18.78-151.13-7.01-197.3,29.98l-12.51-15.61c50.9-40.78,135.19-54.04,214.74-33.76,60.36,15.38,104.56,47.11,121.26,87.03,32.89,78.67,114.08,222.24,288.31,299.88,165.14,73.59,208.73,63.09,250.88,52.94,21.65-5.21,44.04-10.6,80.44-5.24,72.4,10.68,155.15,50.98,227.03,110.58,72.59,60.19,124.26,132.19,141.78,197.55,9.08,33.88,39.82,70.83,88.91,106.86,43.89,32.22,99.9,61.75,157.72,83.18,39.25,14.54,76.35,24.19,107.29,27.91,30.54,3.67,53.9,1.21,65.8-6.91l11.28,16.51c-11.81,8.07-29.54,12.04-51.86,12.05Z"/>
  </g>
</svg>