<?xml version="1.0" encoding="UTF-8"?>
<svg id="Layer_1" data-name="Layer 1" xmlns="http://www.w3.org/2000/svg" viewBox="0 0 375 185">
  <defs>
    <style>
      .cls-1 {
        fill: none;
      }

      .cls-1, .cls-2 {
        stroke-width: 0px;
      }

      .cls-2 {
        fill: #a0c49d;
      }

      .cls-3 {
        opacity: .15;
      }
    </style>
  </defs>
  <g class="cls-3">
    <path class="cls-1" d="m375,24.63V0h-79.51c2.69,1.03,5.38,2.06,8.08,3.06,25.04,9.28,49.19,16.55,71.43,21.57h0Z"/>
    <path class="cls-1" d="m178.47,612.51c60.36,15.38,104.56,47.11,121.26,87.03,12.68,30.34,32.56,70.32,62.17,112.46h13.1V164.14c-1.1.02-2.21.04-3.33.04-36.2,0-84.51-10.44-139.46-30.8C152.03,103.68,66.37,55.17,15.47,0H0v624.23c49.95-22.83,115.68-27.73,178.47-11.72Z"/>
    <path class="cls-1" d="m370.36,87.4c1.57.19,3.11.36,4.64.51v-42.72c-23.91-5.15-50.27-12.97-78.38-23.38C279.26,15.38,261.65,8.07,244.19,0h-103.65c36.94,22.86,79.22,43.45,122.52,59.5,39.25,14.54,76.35,24.19,107.29,27.91h0Z"/>
    <path class="cls-1" d="m239.15,114.63c39.25,14.54,76.35,24.19,107.29,27.91,10.41,1.25,19.98,1.79,28.56,1.63v-36.12c-33.14-3.06-73.78-13.08-118.88-29.79C204.1,58.98,149.77,31.79,104.12,0h-60.64c11.06,10.5,23.73,21.01,37.95,31.45,43.89,32.22,99.9,61.75,157.73,83.18h-.01Z"/>
    <path class="cls-2" d="m375,108.04v-20.13c-1.53-.16-3.07-.32-4.64-.51-30.94-3.71-68.04-13.37-107.29-27.91C219.77,43.45,177.48,22.86,140.54,0h-36.42c45.65,31.79,99.98,58.98,152,78.25,45.11,16.71,85.74,26.74,118.88,29.79Z"/>
    <path class="cls-2" d="m375,45.19v-20.56c-22.24-5.02-46.39-12.3-71.43-21.57C300.87,2.06,298.18,1.04,295.49,0h-51.3c17.46,8.07,35.08,15.38,52.43,21.81,28.11,10.41,54.47,18.23,78.38,23.38h0Z"/>
    <path class="cls-2" d="m232.21,133.38c54.95,20.36,103.26,30.8,139.46,30.8,1.13,0,2.23-.02,3.33-.04v-19.98c-8.57.15-18.15-.38-28.56-1.63-30.94-3.71-68.04-13.37-107.29-27.91-57.82-21.42-113.84-50.96-157.73-83.18C67.21,21.01,54.54,10.5,43.48,0H15.47c50.9,55.17,136.56,103.68,216.74,133.38Z"/>
  </g>
</svg>