<?xml version="1.0" encoding="UTF-8"?>
<svg id="Layer_1" data-name="Layer 1" xmlns="http://www.w3.org/2000/svg" viewBox="0 0 40 40">
  <defs>
    <style>
      .cls-1 {
        fill: #262626;
        stroke-width: 0px;
      }
    </style>
  </defs>
  <path class="cls-1" d="m38.66,5.98H9.14c-.3-1.44-.6-2.89-.9-4.33-.12-.57-.73-.98-1.28-.98H1.33C.63.67-.03,1.28,0,2c.03.72.58,1.33,1.33,1.33h4.55c.31,1.51.63,3.02.94,4.54,0,.02.01.03.02.05,1.12,5.92,2.25,11.84,3.37,17.76,0,.04,0,.07.01.11.42,2.17.83,4.34,1.25,6.51-.1.1-.21.19-.3.3-1.1,1.34-1.34,3.23-.43,4.75.91,1.52,2.64,2.21,4.35,1.91,1.88-.34,3.21-2.12,3.23-3.98,0-.5-.11-.98-.28-1.42h10.19c-.42,1.13-.37,2.41.28,3.5.91,1.52,2.64,2.21,4.35,1.91,1.88-.34,3.21-2.12,3.23-3.98,0-.57-.14-1.11-.36-1.6.99-.59.77-2.48-.67-2.48H13.95c-.28-1.48-.57-2.96-.85-4.45h23.18c.79,0,1.23-.61,1.33-1.33.8-6.04,1.59-12.08,2.39-18.11.09-.71-.68-1.33-1.33-1.33Zm-23.45,30.35s-.08.05-.12.08c0,0,0,0,0,0-.06.04-.12.08-.18.11-.04.02-.08.04-.12.06-.11.03-.21.06-.32.09.02,0,.03,0,.06,0-.04,0-.09,0-.14.01-.02,0-.03,0-.05,0,0,0,0,0,0,0-.11,0-.22,0-.32,0-.06-.01-.12-.03-.18-.04-.04-.01-.09-.03-.13-.04.01,0,.02.01.04.02-.01-.01-.03-.02-.05-.03-.02,0-.04-.01-.07-.02-.07-.02-.08-.05-.04-.04-.06-.03-.11-.05-.16-.08-.03-.02-.05-.03-.08-.05-.06-.06-.12-.13-.18-.2.03.05.01.06-.03,0-.01-.02-.03-.04-.04-.07-.01,0-.02-.02-.03-.03.01,0,.02.02.03.02-.02-.04-.05-.07-.07-.11-.02-.04-.05-.08-.07-.13,0,0,0,0,0,0,0,.02,0,.03.01.06,0-.04-.03-.08-.04-.13,0,0,0-.02,0-.02-.02-.07-.05-.13-.06-.2-.01-.04-.02-.08-.03-.13,0-.11,0-.23,0-.34,0,0,0,0,0-.01,0,.02,0,.03-.02.06.01-.05.02-.1.03-.15,0,0,0,0,0,0,0-.03.01-.05.02-.06.02-.09.05-.17.08-.26.03-.06.06-.12.09-.17.02-.04.04-.07.07-.1-.01,0-.01.01-.03.02.01,0,.02-.02.03-.03,0-.01.02-.02.02-.04.04-.07.08-.08.07-.06.04-.05.08-.09.11-.13.01-.01.06-.04.08-.07.1-.06.22-.11.31-.18.05-.02.09-.03.14-.04.03,0,.14-.03.21-.04.08,0,.19-.01.22-.01.05,0,.1,0,.15,0,.12.03.25.06.37.1.06.03.12.06.18.09.04.02.08.05.12.08,0,0,0,0,.01,0,0,0,0,0,0,0,.08.08.17.17.25.25.03.05.06.09.09.14.03.06.06.11.09.17.04.11.07.22.09.34,0-.03,0-.04,0-.07,0,.03,0,.07,0,.1,0,0,0,.02,0,.03.01.05,0,.08,0,.08,0,.03,0,.06,0,.09,0,.05,0,.11,0,.16-.03.09-.04.21-.07.3,0,.03-.02.07-.04.1-.06.11-.12.21-.19.32-.03.03-.06.07-.09.1-.03.03-.07.07-.1.1,0,0-.01,0-.02.01.02-.01.03-.02.07-.04Zm17.76,0s-.08.05-.12.08c0,0,0,0,0,0-.06.04-.12.08-.18.11-.04.02-.08.04-.12.06-.11.03-.21.06-.32.09.02,0,.03,0,.06,0-.04,0-.09,0-.14.01-.02,0-.03,0-.05,0,0,0,0,0,0,0-.11,0-.22,0-.32,0-.06-.01-.12-.03-.18-.04-.04-.01-.09-.03-.13-.04.01,0,.02.01.04.02-.01-.01-.03-.02-.05-.03-.02,0-.04-.01-.07-.02-.07-.02-.08-.05-.04-.04-.06-.03-.11-.05-.16-.08-.03-.02-.05-.03-.08-.05-.06-.06-.12-.13-.18-.2.03.05.01.06-.03,0-.01-.02-.03-.04-.04-.07-.01,0-.02-.02-.03-.03.01,0,.02.02.03.02-.02-.04-.05-.07-.07-.11-.02-.04-.05-.08-.07-.13,0,0,0,0,0,0,0,.02,0,.03.01.06,0-.04-.03-.08-.04-.13,0,0,0-.02,0-.03-.02-.07-.05-.13-.06-.2-.01-.04-.02-.08-.03-.13,0-.11,0-.23,0-.34,0,0,0,0,0-.01,0,.02,0,.03-.02.06.01-.05.02-.1.03-.15,0,0,0,0,0,0,0-.03.01-.05.02-.06.02-.09.05-.17.08-.26.03-.06.06-.12.09-.17.02-.04.04-.07.07-.1-.01,0-.01.01-.03.02.01,0,.02-.02.03-.03,0-.01.02-.02.02-.04.04-.07.08-.08.07-.06.04-.05.08-.09.11-.13.01-.01.06-.04.08-.07.1-.06.22-.11.31-.18.05-.02.09-.03.14-.04.03,0,.14-.03.21-.04.08,0,.19-.01.22-.01.05,0,.1,0,.15,0,.12.03.25.07.37.1.06.03.12.06.18.09.04.02.08.05.12.08,0,0,0,0,.01,0,0,0,0,0,0,0,.08.08.17.17.25.25.03.05.06.09.09.14.03.06.06.11.09.17.04.11.07.22.09.34,0-.03,0-.04,0-.07,0,.03,0,.07,0,.1,0,0,0,.02,0,.03.01.05,0,.08,0,.08,0,.03,0,.06,0,.09,0,.05,0,.11,0,.16-.03.09-.04.21-.07.3,0,.03-.02.07-.04.1-.06.11-.12.21-.19.32-.03.03-.06.07-.09.1-.03.03-.07.07-.1.1,0,0-.01,0-.02.01.02-.01.03-.02.07-.04Zm-18.37-12.23h-2.01c-.98-5.15-1.95-10.3-2.93-15.46h27.49c-.68,5.15-1.36,10.3-2.04,15.46H14.61Z"/>
  <path class="cls-1" d="m13.71,36.59s0,0,.01,0c-.05-.04-.09-.06-.11-.06.04.02.07.04.1.06Z"/>
  <path class="cls-1" d="m15.09,36.41s0,0,0,0c.02-.01.04-.03.05-.04-.13.07-.11.08-.06.04Z"/>
  <path class="cls-1" d="m12.84,35.03s-.01.05-.01.08c.03-.11.04-.15.03-.14,0,.02-.01.04-.02.06Z"/>
  <path class="cls-1" d="m14.36,36.69s.03,0,.05,0c.01,0,.03,0,.04,0,.01,0,.02,0,.03,0-.14,0-.17.01-.12.02Z"/>
  <path class="cls-1" d="m13.1,36.12s0,0,0,0c.03.02.05.05.08.08-.01-.02-.04-.05-.08-.08Z"/>
  <path class="cls-1" d="m12.93,35.79s0,.02,0,.02c0,.02.01.04.03.07-.03-.15-.05-.15-.03-.09Z"/>
  <path class="cls-1" d="m15.66,35.18s0-.07,0-.11c0,0,0-.02,0-.03,0,.09,0,.13.01.14Z"/>
  <path class="cls-1" d="m13.2,34.32s-.07.07-.1.1c0,0,0,0,0,.01.07-.05.1-.09.11-.11Z"/>
  <path class="cls-1" d="m32.13,36.69s.03,0,.05,0c.01,0,.03,0,.04,0,.01,0,.02,0,.03,0-.14,0-.17.01-.12.02Z"/>
  <path class="cls-1" d="m30.87,36.12s0,0,0,0c.03.02.05.05.08.07-.01-.02-.04-.05-.08-.08Z"/>
  <path class="cls-1" d="m32.86,36.41s0,0,0,0c.02-.01.04-.03.05-.04-.13.07-.11.08-.06.04Z"/>
  <path class="cls-1" d="m31.48,36.59s0,0,.01,0c-.05-.04-.09-.06-.11-.06.04.02.07.04.1.06Z"/>
  <path class="cls-1" d="m30.69,35.79s0,.02,0,.03c0,.02.01.04.03.07-.03-.14-.05-.15-.03-.09Z"/>
  <path class="cls-1" d="m30.97,34.33s-.06.07-.1.1c0,0,0,0,0,.01.07-.05.1-.09.11-.11Z"/>
  <path class="cls-1" d="m30.61,35.03s-.01.05-.01.08c.03-.11.04-.15.03-.14,0,.02-.01.04-.02.06Z"/>
  <path class="cls-1" d="m33.42,35.18s0-.07,0-.11c0,0,0-.02,0-.03,0,.09,0,.13.01.14Z"/>
</svg>